<svg version="1.0" xmlns="http://www.w3.org/2000/svg" width="1706.667" height="1705.333" viewBox="0 0 1280 1279"><path d="M617.1 10.2c1.8 2.4 4.3 5.2 5.4 6.3 3.1 3 11.1 19.1 14.4 29.1 6.2 18.5 8.7 46 5.7 63-4.8 27.6-18.3 53.7-38.8 74.9-7.5 7.9-13.2 12.6-24.6 20.2-18.6 12.6-23.6 14.6-35.8 14.6-12.7 0-17.7-2.4-29.1-14-7.6-7.8-9.3-10.1-14-19.9-8.8-18.6-10.6-25.1-17.7-63.4-.9-4.6-1.9-8.7-2.4-9.2-.4-.4-.5 6.8-.4 16 .7 32.9-2.8 55.7-10.9 71.4-10.6 20.2-27.1 30.6-49 30.7-19.1.2-39.7-9.3-59.4-27.3-4.1-3.8-23-17.1-28.7-20.3-1.8-1-3.4-2.1-3.6-2.6-.2-.4-1-.7-1.7-.7s-1.5-.4-1.7-.9c-.6-1.7-10.1-8-17.8-11.9-4.1-2.1-10.2-5.6-13.5-7.7-3.2-2.1-10.1-5.8-15.1-8.1-9.6-4.5-42.3-15.8-43.2-14.9-.3.3-1 .1-1.7-.5-3.1-2.6-33.6-8.7-55.5-11.1-16.4-1.8-55.3-1.6-71.9.5-15 1.8-36.2 5.9-41.9 8-2 .8-6.6 2.5-10.2 3.9-17 6.3-31.5 13.4-35 17.2-2.2 2.4-2.2 2.3 7.1-.7 14-4.4 33.7-9.3 48.4-11.9 17.3-3.1 51-3.3 65-.6 11.1 2.3 43.9 12.9 52 17 11.4 5.6 34.1 22.4 46.9 34.6 14 13.3 26.2 31.5 38.5 57.2 15.6 32.6 21.5 57.7 22.8 96.4.7 22.2-.5 36.7-4.6 56.6-4.4 21-11.1 33.2-25.8 46.9-11.2 10.6-31.7 22.6-49 29-3.5 1.2-6.3 2.4-6.3 2.6 0 .2 3.1 3.4 6.9 7.1 16.2 16 19.2 35.3 10 64.1-5.2 16.2-8.8 22.8-18 33.1-15 16.7-27.2 24.8-52.2 34.6-30.1 11.7-58.6 17.5-138.2 27.8l-18 2.3H42c28.6.1 41.2.5 53 1.8 44.6 4.9 72.6 15 103 37.2 11.4 8.3 24.5 22 27.6 28.9 6 12.9 6.6 27.9 1.8 38.5-3.4 7.3-5.8 9.8-11.8 11.5-14.3 4.3-33.8-.5-49.6-12.1-3.3-2.4-6-4-6-3.5 0 2.1 4.2 10.5 7.9 15.9 5.8 8.5 17.8 19.6 24.2 22.5 3 1.3 6.1 3.1 7 3.9.9.9 4.7 2.8 8.5 4.3 22 8.7 53.5 32.1 62.9 46.8 13.2 20.6 17.6 37.6 15.6 59.9-1.7 20-4.9 27.6-22.4 54.4-29.2 44.7-46.2 79.7-55.1 113.9-1.5 5.5-3.1 10.8-3.6 11.7-.6 1-1 3-1 4.5 0 1.6-.5 4.6-1.2 6.8-.6 2.2-1.1 4.6-.9 5.3.1.7-.6 4.8-1.6 9-2.8 11.9-2.3 37.7 1 59.8 1.4 9.4 3.3 19.1 4.1 21.5.9 2.4 1.6 5.5 1.6 6.7 0 1.3.7 3.8 1.4 5.5 1.6 3.5 6.6 20.4 6.6 22.4 0 .6 1.3 3.5 3 6.3 1.6 2.8 3.2 6.1 3.6 7.4.5 2.3 6.3 10 7 9.4.2-.2-.6-3.2-1.7-6.7-3.8-12.5-8.9-39.9-8.9-48.4 0-31.9 6.5-59.3 20.5-86.3 8.9-17.2 11.3-20.4 27.9-37.5 23-23.6 51.5-39.4 88.3-48.9 27.4-7.1 54.7-8.9 71.7-4.6 24.2 6.2 52.4 24.9 64.2 42.8 11.4 17.1 18.4 44.9 17.2 68.6-.1 3.9-.2 7.2-.1 7.2s2.3-3.6 4.9-8c2.6-4.4 7.8-11.7 11.4-16.3 14.6-18 28.2-27 43.4-28.4 9.8-.9 13.8.8 22 9 8.7 8.7 14.9 18.7 20.4 32.7 13.4 34.5 19.8 63.9 29 133.9l1.7 13.4.1-26.9c.2-34.1 1.7-58.8 4.9-82.9 4.4-32.6 7.8-43.3 18.2-57 7.2-9.5 8.7-10.9 13.7-13 2.9-1.2 3.7-2.1 3.3-3.5-.3-1 0-3.9.5-6.4 1.4-6.7 8.1-13.6 17.6-18.3 7.1-3.6 8.1-3.8 16.6-3.7 5 0 11.4.4 14.1.8 9.6 1.6 32.1 14.1 43.3 24.1 4.3 3.9 5.2 4.3 5.2 2.7 0-8.1 11.7-30.1 20.7-38.9 17.1-16.8 41.9-26.7 77.1-30.8 24.6-2.9 36.7-1.9 62.7 5.1 15.5 4.2 26.2 9.3 58 27.4 47.9 27.4 68.3 35.7 96 39.4 6.1.8 12.4 2 14 2.7 5.1 2.1 50.3 1.8 65-.5 12.5-1.9 17.7-2.7 31-4.5 16.6-2.4 48.3-12.8 65.4-21.6 6.3-3.2 10-6.3 4.1-3.4-10.5 5.1-20.6 7.7-42.5 10.9-17.1 2.5-26.3 2.3-42.6-1-28.7-5.9-55.3-19.4-86.1-43.8-6.4-5.1-14.6-12.4-18-16.2-12.2-13.3-21.2-31.7-24.3-49.5-1.9-10.9-1.9-15.6 0-27 1.7-10.4 3-14.9 5.7-18.7 1.9-2.7 1.9-2.9-.1-13-3.6-18-4.4-26.9-4.4-45.3 0-14.8.4-19.5 2.1-26.7 2.7-10.8 6.3-19.8 10.7-26.4 3.8-5.9 10.6-9.8 18.7-11l4.8-.6-5.8-5.7c-7.1-6.8-10.6-12.6-12.8-21-1.9-7.8-1.4-12.2 2.6-20.3 5.7-11.5 10.3-16.6 44.2-49.2 32.4-31.2 45.6-47.3 55.3-67.8 3.9-8.1 9.6-24 8.9-24.8-.3-.2-4.4 3.6-9.2 8.6-13.9 14.2-22.2 19.9-33.9 22.9-9.8 2.6-17.3 2.2-24.6-1.3-8.1-3.8-12.9-8.6-16.9-17-3-6.3-3.2-7.4-3.3-18.2 0-10.9.2-11.9 3.4-19 11.5-25.8 29.6-45.7 50.6-55.6 17.5-8.3 38.6-11.6 60.4-9.5 10.6 1 24.4 3.4 32.6 5.7 3.9 1.1-6.9-4.9-15.8-8.8-13.1-5.7-27.8-9.9-58.7-16.8-30.7-6.8-46.1-10.9-56.5-15-20.5-8.1-25.3-10.2-31.6-14-8.7-5.1-20.9-14.9-24.8-19.8-7.1-9.1-13.7-26-16.6-42.8-3.4-19.6-2.2-31 5.7-55.4 4-12.4 7.7-21.4 30.3-73.5 6.4-14.9 13.4-32.2 15.6-38.5 7.4-21.4 12.8-46.1 16.5-75 1.6-13 3.2-77.1 1.9-75.8-.4.3-1.6 5.7-2.6 12-7.4 43.3-26.5 85-53.6 117-5.6 6.6-35.1 31.3-47 39.4-20.7 14-45.1 23.7-67.6 26.9-17.1 2.4-48-2.7-70.1-11.6-26.4-10.5-39.6-23-43.6-41-2-9.1-.8-29.7 2.9-47.3 1.7-8.2 3.1-15.2 3.1-15.5 0-.3-1.8 2.7-4.1 6.8-10 18.4-24.1 34-35.9 40-7.4 3.7-19.8 6.5-25.2 5.8-7.2-1-14.4-5.4-24.1-15-9.8-9.7-16.3-18.4-24.5-33.3-5.5-9.9-17.3-35.3-24.8-53.4-9.6-23.2-26.7-53.9-39.2-70.6-7.8-10.4-20.6-23.5-33-33.7-5.1-4.2-9.5-7.7-9.8-7.7-.3 0 .9 1.9 2.7 4.2z" fill="#ff5722"/></svg>