<svg version="1.0" xmlns="http://www.w3.org/2000/svg" width="853.333" height="1706.667" viewBox="0 0 640 1280"><path d="M267 46v46h-92v102h92v82.9l-74 87-74 87v47.6l47 54.7c41.2 48 46.7 54.8 44.8 55.2-1.3.3-7.7 1-14.3 1.7-28.5 2.7-34.8 5.8-41.7 20.4-2.9 6.1-3.3 8-3.3 15 0 16.4 8.9 27.8 25 32.2 5.4 1.4 28.9 3.2 45 3.3 12.3.1 17.1 1.5 16.7 4.9-.7 6.4-40.9 181.6-95.3 414.9-6.6 28.3-14.3 61.6-16.9 72.8l-2.1 9-10 2.4c-24.6 5.7-32.6 14.3-35.9 38.3-.5 4.3-1 18.8-1 32.3v24.4h486v-24.4c0-26.1-.9-36.5-4.1-46.1-4.7-14.2-13.5-20.5-34.4-24.5-6-1.1-11.3-2.4-11.6-2.8-.6-.6-14.2-57.2-61.5-256.2-4.7-19.5-11.4-47.9-15-63-3.6-15.1-9.5-39.9-13-55-19.4-81.6-29.2-124.6-28.4-125.4.4-.4 12-1.2 25.7-1.7 13.6-.5 28-1.3 32-1.9 15.3-2.1 23.3-7.2 28.9-18.6 2.5-5.2 2.9-7 2.9-14.9 0-8-.3-9.7-3.1-15.6-6.6-13.8-12.6-16.7-40-19.4-9.3-.9-17.9-1.9-19.2-2.1-1.9-.4 3.7-7.4 44.8-55.2l47-54.7V451l-72.5-85.2-72.5-85.3V194h89V92l-44.2-.2-44.3-.3-.3-45.8L369 0H267v46z"/></svg>