<svg xmlns="http://www.w3.org/2000/svg" viewBox="0 0 128 128"><path fill="#F7BB83" d="M119.178 51.491l-7.538-13.262c-.544-.956-1.889-1.738-2.988-1.738H17.736c-1.1 0-2.36.824-2.801 1.832L9.178 51.491"/><path fill="#6E4123" d="M9.177 53.492a2.001 2.001 0 01-1.831-2.803l5.758-13.167c.755-1.729 2.746-3.031 4.633-3.031h90.915c1.832 0 3.82 1.156 4.727 2.749l7.538 13.263a2 2 0 11-3.477 1.977l-7.538-13.262c-.189-.332-.867-.727-1.25-.727H17.736c-.304 0-.847.355-.968.633L11.01 52.293a2.002 2.002 0 01-1.833 1.199z"/><path fill="#F7BB83" d="M103.178 26.491l-3.106-6.211c-.492-.984-1.795-1.789-2.894-1.789h-13c-1.1 0-2.316.843-2.702 1.873l-2.298 6.127"/><path fill="#6E4123" d="M79.178 28.492a2.001 2.001 0 01-1.873-2.703l2.298-6.127c.677-1.808 2.644-3.171 4.575-3.171h13c1.845 0 3.858 1.244 4.684 2.895l3.105 6.211a2 2 0 11-3.579 1.789l-3.105-6.211c-.153-.307-.763-.684-1.105-.684h-13c-.264 0-.736.327-.829.574l-2.298 6.128a2.004 2.004 0 01-1.873 1.299z"/><path fill="#F7BB83" d="M46.178 16.491l-3.106-6.211c-.492-.984-1.795-1.789-2.894-1.789h-11c-1.1 0-2.477.764-3.06 1.696l-3.94 6.304"/><path fill="#6E4123" d="M46.18 18.491a1.999 1.999 0 01-1.791-1.105l-3.105-6.211c-.153-.307-.763-.684-1.105-.684h-11c-.408 0-1.148.41-1.363.757l-3.94 6.304a2.002 2.002 0 01-3.393-2.121l3.94-6.304c.955-1.527 2.955-2.636 4.756-2.636h11c1.845 0 3.858 1.244 4.684 2.894l3.105 6.211a2 2 0 01-1.788 2.895z"/><path fill="#F7BB83" d="M85.178 36.491h12v8h-12z"/><path fill="#6E4123" d="M97.178 46.491h-12a2 2 0 01-2-2v-8a2 2 0 012-2h12a2 2 0 012 2v8a2 2 0 01-2 2zm-10-4h8v-4h-8v4z"/><path fill="#FFF" d="M79.178 26.491h24v10h-24z"/><path fill="#6E4123" d="M103.178 38.491h-24a2 2 0 01-2-2v-10a2 2 0 012-2h24a2 2 0 012 2v10a2 2 0 01-2 2zm-22-4h20v-6h-20v6z"/><path fill="#F7BB83" d="M28.178 26.491h12v18h-12z"/><path fill="#6E4123" d="M40.178 46.491h-12a2 2 0 01-2-2v-18a2 2 0 012-2h12a2 2 0 012 2v18a2 2 0 01-2 2zm-10-4h8v-14h-8v14z"/><path fill="#FFF" d="M22.178 16.491h24v10h-24z"/><path fill="#6E4123" d="M46.178 28.491h-24a2 2 0 01-2-2v-10a2 2 0 012-2h24a2 2 0 012 2v10a2 2 0 01-2 2zm-22-4h20v-6h-20v6z"/><path fill="#F7BB83" d="M9.178 51.491h110v56h-110z"/><path fill="#6E4123" d="M119.178 109.491h-110a2 2 0 01-2-2v-56a2 2 0 012-2h110a2 2 0 012 2v56a2 2 0 01-2 2zm-108-4h106v-52h-106v52z"/><circle fill="#FFF" cx="37.178" cy="79.491" r="22"/><path fill="#6E4123" d="M37.178 103.491c-13.233 0-24-10.767-24-24s10.767-24 24-24 24 10.767 24 24-10.767 24-24 24zm0-44c-11.028 0-20 8.972-20 20s8.972 20 20 20 20-8.972 20-20-8.972-20-20-20z"/><circle fill="#6E4123" cx="37.178" cy="63.491" r="2"/><circle fill="#6E4123" cx="37.178" cy="63.491" r="2"/><circle fill="#6E4123" cx="22.177" cy="80.488" r="2"/><circle fill="#6E4123" cx="37.178" cy="95.491" r="2"/><circle fill="#6E4123" cx="52.178" cy="80.49" r="2"/><path fill="#6E4123" d="M44.178 82.491h-7a2 2 0 01-2-2v-10a2 2 0 014 0v8h5a2 2 0 010 4z"/><circle fill="#FFF" cx="91.178" cy="79.491" r="22"/><path fill="#6E4123" d="M91.178 103.491c-13.233 0-24-10.767-24-24s10.767-24 24-24 24 10.767 24 24-10.767 24-24 24zm0-44c-11.028 0-20 8.972-20 20s8.972 20 20 20 20-8.972 20-20-8.972-20-20-20z"/><path fill="#6E4123" d="M86.844 88.435a2 2 0 01-1.503-3.318l3.837-4.378V70.491a2 2 0 014 0v11c0 .485-.176.953-.496 1.318l-4.333 4.944a1.994 1.994 0 01-1.505.682z"/><path fill="#F7BB83" d="M18.178 107.491h17v12h-17z"/><path fill="#6E4123" d="M35.178 121.491h-17a2 2 0 01-2-2v-12a2 2 0 012-2h17a2 2 0 012 2v12a2 2 0 01-2 2zm-15-4h13v-8h-13v8z"/><path fill="#F7BB83" d="M93.178 107.491h17v12h-17z"/><path fill="#6E4123" d="M110.178 121.491h-17a2 2 0 01-2-2v-12a2 2 0 012-2h17a2 2 0 012 2v12a2 2 0 01-2 2zm-15-4h13v-8h-13v8z"/><path fill="#6E4123" d="M42.178 8.491l4 8v10h-6v10h45-6v-10l3-8h17l4 8v10h-6 13.474l8.526 15v56h-9v12h-17v-12h-58v12h-17v-12h-9v-56l6.559-15h12.441v-10h-6v-10l5-8h15m0-4h-15a4.001 4.001 0 00-3.392 1.88l-5 8a4.003 4.003 0 00-.608 2.12v10a4 4 0 004 4h2v2h-8.441a4 4 0 00-3.665 2.398l-6.559 15a4.001 4.001 0 00-.335 1.602v56a4 4 0 004 4h5v8a4 4 0 004 4h17a4 4 0 004-4v-8h50v8a4 4 0 004 4h17a4 4 0 004-4v-8h5a4 4 0 004-4v-56c0-.693-.18-1.374-.523-1.977l-8.526-15a4 4 0 00-3.478-2.023h-3.474v-6c0-.621-.145-1.233-.422-1.789l-4-8a4.003 4.003 0 00-3.578-2.211h-17a3.999 3.999 0 00-3.745 2.596l-3 8a3.987 3.987 0 00-.255 1.404v6h-31v-2h2a4 4 0 004-4v-10c0-.621-.145-1.233-.422-1.789l-4-8a4.001 4.001 0 00-3.577-2.211z"/><circle fill="#6E4123" cx="91.18" cy="63.491" r="2"/><circle fill="#6E4123" cx="76.179" cy="80.488" r="2"/><circle fill="#6E4123" cx="91.18" cy="95.491" r="2"/><circle fill="#6E4123" cx="106.18" cy="80.49" r="2"/></svg>