<svg xmlns="http://www.w3.org/2000/svg" xmlns:xlink="http://www.w3.org/1999/xlink" viewBox="0 0 82 60" version="1.0"><defs><linearGradient id="a" y2="47.547" gradientUnits="userSpaceOnUse" y1="18.495" x2="127.2" x1="127.2"><stop stop-color="#fff" offset="0"/><stop stop-color="#fff" stop-opacity="0" offset="1"/></linearGradient></defs><g fill-rule="evenodd"><path fill="#ef2929" d="M63.056 29.995a22.06 22.06 0 11-44.12 0 22.06 22.06 0 1144.12 0z"/><g fill="#a40000"><path xlink:href="#path22091" d="M37.777 20.862c-4.147 1.454-7.165 5.613-7.165 10.55 0 6.15 4.653 11.134 10.385 11.134S51.38 37.563 51.38 31.412c0-4.942-3.03-9.096-7.18-10.55v3.978c2.211 1.25 3.759 3.703 3.759 6.572 0 4.118-3.122 7.465-6.963 7.465s-6.963-3.347-6.963-7.465c0-2.863 1.53-5.322 3.743-6.572v-3.978z"/><path xlink:href="#path22093" d="M39.242 18.472v13.214h3.509V18.472h-3.509z"/></g><g fill="#eeeeec"><path xlink:href="#path22091" d="M37.777 20.702c-4.147 1.356-7.165 5.236-7.165 9.84 0 5.737 4.653 10.384 10.385 10.384S51.38 36.279 51.38 30.541c0-4.609-3.03-8.483-7.18-9.84v3.711c2.211 1.166 3.759 3.454 3.759 6.13 0 3.84-3.122 6.962-6.963 6.962s-6.963-3.121-6.963-6.963c0-2.67 1.53-4.963 3.743-6.129v-3.71z"/><path xlink:href="#path22093" d="M39.242 18.473v12.325h3.509V18.473h-3.509z"/></g><path opacity=".75" transform="matrix(.70156 0 0 .73625 -48.237 -3.615)" fill="url(#a)" d="M149.63 34.779a22.429 16.284 0 11-44.86 0 22.429 16.284 0 1144.86 0z"/></g></svg>